<?xml version="1.0" encoding="UTF-8" standalone="no"?>
<!-- Created with Inkscape (http://www.inkscape.org/) -->

<svg
   xmlns:dc="http://purl.org/dc/elements/1.1/"
   xmlns:cc="http://creativecommons.org/ns#"
   xmlns:rdf="http://www.w3.org/1999/02/22-rdf-syntax-ns#"
   xmlns:svg="http://www.w3.org/2000/svg"
   xmlns="http://www.w3.org/2000/svg"
   xmlns:xlink="http://www.w3.org/1999/xlink"
   xmlns:sodipodi="http://sodipodi.sourceforge.net/DTD/sodipodi-0.dtd"
   xmlns:inkscape="http://www.inkscape.org/namespaces/inkscape"
   version="1.1"
   width="210mm"
   height="297mm"
   id="svg2"
   inkscape:version="0.48.2 r9819"
   sodipodi:docname="vw_camper.svg"
   enable-background="new">
  <sodipodi:namedview
     pagecolor="#ffffff"
     bordercolor="#666666"
     borderopacity="1"
     objecttolerance="10"
     gridtolerance="10"
     guidetolerance="10"
     inkscape:pageopacity="0"
     inkscape:pageshadow="2"
     inkscape:window-width="1920"
     inkscape:window-height="1176"
     id="namedview3165"
     showgrid="false"
     inkscape:zoom="1.3980254"
     inkscape:cx="501.02391"
     inkscape:cy="87.227918"
     inkscape:window-x="0"
     inkscape:window-y="24"
     inkscape:window-maximized="1"
     inkscape:current-layer="layer3" />
  <defs
     id="defs4">
    <linearGradient
       id="linearGradient6068">
      <stop
         id="stop6070"
         style="stop-color:#e6e6e6;stop-opacity:1"
         offset="0" />
      <stop
         id="stop6076"
         style="stop-color:#575a5a;stop-opacity:1"
         offset="0.59947932" />
      <stop
         id="stop6078"
         style="stop-color:#9ea0a0;stop-opacity:1"
         offset="0.89921898" />
      <stop
         id="stop6072"
         style="stop-color:#e6e6e6;stop-opacity:1"
         offset="1" />
    </linearGradient>
    <linearGradient
       id="linearGradient6058">
      <stop
         id="stop6060"
         style="stop-color:#000000;stop-opacity:1"
         offset="0" />
      <stop
         id="stop6066"
         style="stop-color:#000000;stop-opacity:1"
         offset="0.90476191" />
      <stop
         id="stop6062"
         style="stop-color:#181d1d;stop-opacity:1"
         offset="1" />
    </linearGradient>
    <linearGradient
       id="linearGradient5618">
      <stop
         id="stop5628"
         style="stop-color:#ff0043;stop-opacity:0.84397161"
         offset="0" />
      <stop
         id="stop5632"
         style="stop-color:#dd0000;stop-opacity:0.81560284"
         offset="0.04421769" />
      <stop
         id="stop5634"
         style="stop-color:#b70000;stop-opacity:0.8652482"
         offset="0.9285714" />
      <stop
         id="stop5622"
         style="stop-color:#ff0000;stop-opacity:0.66666669"
         offset="1" />
    </linearGradient>
    <linearGradient
       id="linearGradient5600">
      <stop
         id="stop5602"
         style="stop-color:#ff00ff;stop-opacity:0.83137256"
         offset="0" />
    </linearGradient>
    <linearGradient
       id="linearGradient5574">
      <stop
         id="stop5576"
         style="stop-color:#47802a;stop-opacity:1"
         offset="0" />
    </linearGradient>
    <radialGradient
       cx="447.79794"
       cy="670.03107"
       r="27.938305"
       fx="447.79794"
       fy="670.03107"
       id="radialGradient6074-7"
       xlink:href="#linearGradient6068-1"
       gradientUnits="userSpaceOnUse"
       gradientTransform="matrix(1,0,0,0.98277008,0,11.544581)" />
    <linearGradient
       id="linearGradient6068-1">
      <stop
         id="stop6070-4"
         style="stop-color:#e6e6e6;stop-opacity:1"
         offset="0" />
      <stop
         id="stop6076-5"
         style="stop-color:#575a5a;stop-opacity:1"
         offset="0.59947932" />
      <stop
         id="stop6078-6"
         style="stop-color:#9ea0a0;stop-opacity:1"
         offset="0.89921898" />
      <stop
         id="stop6072-8"
         style="stop-color:#e6e6e6;stop-opacity:1"
         offset="1" />
    </linearGradient>
    <radialGradient
       cx="445.63174"
       cy="668.58698"
       r="45.027073"
       fx="445.63174"
       fy="668.58698"
       id="radialGradient6064-7"
       xlink:href="#linearGradient6058-2"
       gradientUnits="userSpaceOnUse"
       gradientTransform="matrix(1,0,0,0.9465462,0,35.738512)" />
    <linearGradient
       id="linearGradient6058-2">
      <stop
         id="stop6060-7"
         style="stop-color:#000000;stop-opacity:1"
         offset="0" />
      <stop
         id="stop6066-0"
         style="stop-color:#000000;stop-opacity:1"
         offset="0.90476191" />
      <stop
         id="stop6062-4"
         style="stop-color:#181d1d;stop-opacity:1"
         offset="1" />
    </linearGradient>
    <radialGradient
       cx="445.63174"
       cy="668.58698"
       r="45.027073"
       fx="445.63174"
       fy="668.58698"
       id="radialGradient6226"
       xlink:href="#linearGradient6058-2"
       gradientUnits="userSpaceOnUse"
       gradientTransform="matrix(1,0,0,0.9465462,0,35.738512)" />
    <radialGradient
       cx="447.79794"
       cy="670.03107"
       r="27.938305"
       fx="447.79794"
       fy="670.03107"
       id="radialGradient6074-7-5"
       xlink:href="#linearGradient6068-1-6"
       gradientUnits="userSpaceOnUse"
       gradientTransform="matrix(1,0,0,0.98277008,0,11.544581)" />
    <linearGradient
       id="linearGradient6068-1-6">
      <stop
         id="stop6070-4-7"
         style="stop-color:#e6e6e6;stop-opacity:1"
         offset="0" />
      <stop
         id="stop6076-5-8"
         style="stop-color:#575a5a;stop-opacity:1"
         offset="0.59947932" />
      <stop
         id="stop6078-6-6"
         style="stop-color:#9ea0a0;stop-opacity:1"
         offset="0.89921898" />
      <stop
         id="stop6072-8-6"
         style="stop-color:#e6e6e6;stop-opacity:1"
         offset="1" />
    </linearGradient>
    <radialGradient
       cx="445.63174"
       cy="668.58698"
       r="45.027073"
       fx="445.63174"
       fy="668.58698"
       id="radialGradient6226-3"
       xlink:href="#linearGradient6058-2-4"
       gradientUnits="userSpaceOnUse"
       gradientTransform="matrix(1,0,0,0.9465462,0,35.738512)" />
    <linearGradient
       id="linearGradient6058-2-4">
      <stop
         id="stop6060-7-4"
         style="stop-color:#000000;stop-opacity:1"
         offset="0" />
      <stop
         id="stop6066-0-2"
         style="stop-color:#000000;stop-opacity:1"
         offset="0.90476191" />
      <stop
         id="stop6062-4-8"
         style="stop-color:#181d1d;stop-opacity:1"
         offset="1" />
    </linearGradient>
    <radialGradient
       cx="445.63174"
       cy="668.58698"
       r="45.027073"
       fx="445.63174"
       fy="668.58698"
       id="radialGradient6287"
       xlink:href="#linearGradient6058-2-4"
       gradientUnits="userSpaceOnUse"
       gradientTransform="matrix(1,0,0,0.9465462,0,35.738512)" />
    <linearGradient
       x1="-3.5546951"
       y1="609.90375"
       x2="566.82074"
       y2="609.90375"
       id="linearGradient5626-1"
       xlink:href="#linearGradient5618-5"
       gradientUnits="userSpaceOnUse" />
    <linearGradient
       id="linearGradient5618-5">
      <stop
         id="stop5628-9"
         style="stop-color:#ff0043;stop-opacity:0.84397161"
         offset="0" />
      <stop
         id="stop5632-1"
         style="stop-color:#dd0000;stop-opacity:0.81560284"
         offset="0.04421769" />
      <stop
         id="stop5634-6"
         style="stop-color:#b70000;stop-opacity:0.8652482"
         offset="0.9285714" />
      <stop
         id="stop5622-4"
         style="stop-color:#ff0000;stop-opacity:0.66666669"
         offset="1" />
    </linearGradient>
    <linearGradient
       x1="-3.5546951"
       y1="609.90375"
       x2="566.82074"
       y2="609.90375"
       id="linearGradient6357"
       xlink:href="#linearGradient5618-5"
       gradientUnits="userSpaceOnUse"
       gradientTransform="translate(0,2.6171874e-6)" />
    <radialGradient
       cx="445.63174"
       cy="668.58698"
       r="45.027073"
       fx="445.63174"
       fy="668.58698"
       id="radialGradient6226-5"
       xlink:href="#linearGradient6058-2-0"
       gradientUnits="userSpaceOnUse"
       gradientTransform="matrix(1,0,0,0.9465462,0,35.738512)" />
    <linearGradient
       id="linearGradient6058-2-0">
      <stop
         id="stop6060-7-48"
         style="stop-color:#000000;stop-opacity:1"
         offset="0" />
      <stop
         id="stop6066-0-7"
         style="stop-color:#000000;stop-opacity:1"
         offset="0.90476191" />
      <stop
         id="stop6062-4-1"
         style="stop-color:#181d1d;stop-opacity:1"
         offset="1" />
    </linearGradient>
    <radialGradient
       cx="447.79794"
       cy="670.03107"
       r="27.938305"
       fx="447.79794"
       fy="670.03107"
       id="radialGradient6074-7-7"
       xlink:href="#linearGradient6068-1-2"
       gradientUnits="userSpaceOnUse"
       gradientTransform="matrix(1,0,0,0.98277008,0,11.544581)" />
    <linearGradient
       id="linearGradient6068-1-2">
      <stop
         id="stop6070-4-72"
         style="stop-color:#e6e6e6;stop-opacity:1"
         offset="0" />
      <stop
         id="stop6076-5-2"
         style="stop-color:#575a5a;stop-opacity:1"
         offset="0.59947932" />
      <stop
         id="stop6078-6-61"
         style="stop-color:#9ea0a0;stop-opacity:1"
         offset="0.89921898" />
      <stop
         id="stop6072-8-0"
         style="stop-color:#e6e6e6;stop-opacity:1"
         offset="1" />
    </linearGradient>
    <radialGradient
       cx="445.63174"
       cy="668.58698"
       r="45.027073"
       fx="445.63174"
       fy="668.58698"
       id="radialGradient6287-6"
       xlink:href="#linearGradient6058-2-4-1"
       gradientUnits="userSpaceOnUse"
       gradientTransform="matrix(1,0,0,0.9465462,0,35.738512)" />
    <linearGradient
       id="linearGradient6058-2-4-1">
      <stop
         id="stop6060-7-4-5"
         style="stop-color:#000000;stop-opacity:1"
         offset="0" />
      <stop
         id="stop6066-0-2-9"
         style="stop-color:#000000;stop-opacity:1"
         offset="0.90476191" />
      <stop
         id="stop6062-4-8-4"
         style="stop-color:#181d1d;stop-opacity:1"
         offset="1" />
    </linearGradient>
    <radialGradient
       cx="447.79794"
       cy="670.03107"
       r="27.938305"
       fx="447.79794"
       fy="670.03107"
       id="radialGradient6074-7-5-9"
       xlink:href="#linearGradient6068-1-6-0"
       gradientUnits="userSpaceOnUse"
       gradientTransform="matrix(1,0,0,0.98277008,0,11.544581)" />
    <linearGradient
       id="linearGradient6068-1-6-0">
      <stop
         id="stop6070-4-7-9"
         style="stop-color:#e6e6e6;stop-opacity:1"
         offset="0" />
      <stop
         id="stop6076-5-8-1"
         style="stop-color:#575a5a;stop-opacity:1"
         offset="0.59947932" />
      <stop
         id="stop6078-6-6-7"
         style="stop-color:#9ea0a0;stop-opacity:1"
         offset="0.89921898" />
      <stop
         id="stop6072-8-6-7"
         style="stop-color:#e6e6e6;stop-opacity:1"
         offset="1" />
    </linearGradient>
    <linearGradient
       x1="-3.5546951"
       y1="609.90375"
       x2="566.82074"
       y2="609.90375"
       id="linearGradient6357-8"
       xlink:href="#linearGradient5618-5-3"
       gradientUnits="userSpaceOnUse"
       gradientTransform="translate(0,2.6171874e-6)" />
    <linearGradient
       id="linearGradient5618-5-3">
      <stop
         id="stop5628-9-8"
         style="stop-color:#ff0043;stop-opacity:0.84397161"
         offset="0" />
      <stop
         id="stop5632-1-7"
         style="stop-color:#dd0000;stop-opacity:0.81560284"
         offset="0.04421769" />
      <stop
         id="stop5634-6-3"
         style="stop-color:#b70000;stop-opacity:0.8652482"
         offset="0.9285714" />
      <stop
         id="stop5622-4-1"
         style="stop-color:#ff0000;stop-opacity:0.66666669"
         offset="1" />
    </linearGradient>
    <radialGradient
       cx="445.63174"
       cy="668.58698"
       r="45.027073"
       fx="445.63174"
       fy="668.58698"
       id="radialGradient6287-6-3"
       xlink:href="#linearGradient6058-2-4-1-6"
       gradientUnits="userSpaceOnUse"
       gradientTransform="matrix(0.96710061,-1.1753387e-4,0,0.90464905,17.756977,58.445537)" />
    <linearGradient
       id="linearGradient6058-2-4-1-6">
      <stop
         id="stop6060-7-4-5-8"
         style="stop-color:#000000;stop-opacity:1"
         offset="0" />
      <stop
         id="stop6066-0-2-9-4"
         style="stop-color:#000000;stop-opacity:1"
         offset="0.90476191" />
      <stop
         id="stop6062-4-8-4-6"
         style="stop-color:#181d1d;stop-opacity:1"
         offset="1" />
    </linearGradient>
    <radialGradient
       cx="447.79794"
       cy="670.03107"
       r="27.938305"
       fx="447.79794"
       fy="670.03107"
       id="radialGradient6074-7-5-9-6"
       xlink:href="#linearGradient6068-1-6-0-7"
       gradientUnits="userSpaceOnUse"
       gradientTransform="matrix(1,0,0,0.98277008,0,11.544581)" />
    <linearGradient
       id="linearGradient6068-1-6-0-7">
      <stop
         id="stop6070-4-7-9-2"
         style="stop-color:#e6e6e6;stop-opacity:1"
         offset="0" />
      <stop
         id="stop6076-5-8-1-7"
         style="stop-color:#575a5a;stop-opacity:1"
         offset="0.59947932" />
      <stop
         id="stop6078-6-6-7-4"
         style="stop-color:#9ea0a0;stop-opacity:1"
         offset="0.89921898" />
      <stop
         id="stop6072-8-6-7-1"
         style="stop-color:#e6e6e6;stop-opacity:1"
         offset="1" />
    </linearGradient>
  </defs>
  <metadata
     id="metadata7">
    <rdf:RDF>
      <cc:Work
         rdf:about="">
        <dc:format>image/svg+xml</dc:format>
        <dc:type
           rdf:resource="http://purl.org/dc/dcmitype/StillImage" />
        <dc:title></dc:title>
      </cc:Work>
    </rdf:RDF>
  </metadata>
  <g
     inkscape:groupmode="layer"
     id="layer3"
     inkscape:label="wheel"
     style="display:inline"
     sodipodi:insensitive="true">
    <path
       sodipodi:type="arc"
       style="fill:#000000;fill-opacity:0.85490196;stroke:#000000;stroke-width:1;stroke-miterlimit:4;stroke-opacity:1;stroke-dasharray:none"
       id="path4033"
       sodipodi:cx="643.49689"
       sodipodi:cy="1006.3151"
       sodipodi:rx="38.894142"
       sodipodi:ry="38.894142"
       d="m 682.39103,1006.3151 a 38.894142,38.894142 0 1 1 -77.78828,0 38.894142,38.894142 0 1 1 77.78828,0 z"
       transform="matrix(1,0,0,0.96214509,0,36.621635)" />
    <g
       transform="matrix(0.91553343,0.00970078,0,0.9379222,-242.6402,1352.6152)"
       id="layer4"
       style="display:inline">
      <g
         transform="translate(519.32015,-1043.9179)"
         id="frontwheel">
        <title
           id="title6336">frontwheel</title>
        <path
           inkscape:connector-curvature="0"
           d="m 491.78987,663.22451 a 40.25583,43.062164 89.944776 1 1 -86.12432,0.0104 40.25583,43.062164 89.944776 0 1 86.12432,-0.0104 z"
           id="path5645-1-0"
           style="opacity:0.71608833;fill:url(#radialGradient6287-6-3);fill-opacity:1;fill-rule:nonzero;stroke:none" />
        <path
           inkscape:connector-curvature="0"
           d="m 475.23625,670.03107 a 27.438305,26.95693 0 1 1 -54.87661,0 27.438305,26.95693 0 1 1 54.87661,0 z"
           transform="translate(1.1955115,-6.085262)"
           id="path5647-3-5"
           style="fill:url(#radialGradient6074-7-5-9-6);fill-opacity:1;stroke:#000000;stroke-opacity:1" />
        <path
           inkscape:connector-curvature="0"
           d="m 468.73771,669.30902 a 20.699075,20.097358 0 1 1 -41.39815,0 20.699075,20.097358 0 1 1 41.39815,0 z"
           transform="matrix(0.96321947,0,0,0.97708832,17.327911,9.4445783)"
           id="path5874-4-9"
           style="opacity:0.71608833;fill:none;stroke:#000000;stroke-width:1.39999998;stroke-linecap:round;stroke-linejoin:round;stroke-miterlimit:4;stroke-opacity:1;stroke-dasharray:1.4, 4.2;stroke-dashoffset:2.23999999;marker-start:none" />
      </g>
    </g>
  </g>
  <g
     inkscape:groupmode="layer"
     id="layer5"
     inkscape:label="sport">
    <path
       style="fill:#00c300;stroke:#000000;stroke-width:1px;stroke-linecap:butt;stroke-linejoin:miter;stroke-opacity:1;fill-opacity:0.85490197"
       d="m 70.098868,1042.3481 c 0,-4.0534 0,-8.1067 0,-12.16 0,-0.3741 -0.09404,-2.6731 0,-2.8612 0.790778,-1.5816 0.443943,-0.222 1.430589,-0.7153 0.301595,-0.1508 0.4137,-0.5645 0.715295,-0.7153 0.213259,-0.1066 0.546698,0.1686 0.715294,0 0.168597,-0.1686 -0.168596,-0.5467 0,-0.7153 0.233679,-0.2337 1.196911,0.2337 1.430589,0 0.168597,-0.1686 -0.168596,-0.5467 0,-0.7153 0.357648,-0.3577 1.788237,0.3576 2.145884,0 0.168597,-0.1686 -0.168596,-0.5467 0,-0.7153 0.172122,-0.1721 2.689056,0.1721 2.861178,0 0.168597,-0.1686 -0.168596,-0.5467 0,-0.7153 0.168597,-0.1686 0.502035,0.1066 0.715295,0 0.301595,-0.1508 0.434733,-0.5282 0.715295,-0.7153 0.443606,-0.2957 1.004069,-0.3954 1.430589,-0.7153 0.539509,-0.4046 0.953726,-0.9537 1.430589,-1.4306 0.476863,-0.4768 0.953726,-0.9537 1.430589,-1.4306 0.238432,-0.2384 0.476863,-0.4768 0.715295,-0.7153 0.238431,-0.2384 0.564497,-0.4137 0.715294,-0.7153 0.10663,-0.2132 -0.168596,-0.5466 0,-0.7152 0.168597,-0.1686 0.502035,0.1066 0.715295,0 0.301594,-0.1508 0.434733,-0.5283 0.715294,-0.7153 0.443607,-0.2958 1.00407,-0.3954 1.430589,-0.7153 0.539509,-0.4047 0.953727,-0.9538 1.43059,-1.4306 0.238431,-0.2385 0.4137,-0.5645 0.715294,-0.7153 0.426519,-0.2133 1.093396,0.3372 1.430589,0 0,-1.9075 -0.238431,0.2384 0.715295,-0.7153 0.168596,-0.1686 -0.21326,-0.6087 0,-0.7153 0.426519,-0.2133 0.962986,0.093 1.430589,0 0.739345,-0.1479 1.406539,-0.5674 2.145884,-0.7153 0.467602,-0.093 0.978197,0.1508 1.430589,0 0.319889,-0.1066 0.4137,-0.5645 0.715294,-0.7153 0.21326,-0.1066 0.476864,0 0.715295,0 0.23843,0 0.47686,0 0.71529,0 1.66903,0 3.33805,0 5.00707,0 1.43059,0 2.86117,0 4.29176,0 0.47687,0 0.96797,-0.1157 1.43059,0 0.51723,0.1293 0.9248,0.5467 1.43059,0.7153 0.2262,0.075 0.50204,-0.1066 0.7153,0 0.60319,0.3016 0.79081,1.2173 1.43059,1.4306 0.45239,0.1508 0.97819,-0.1508 1.43059,0 0.31988,0.1066 0.3954,0.6087 0.71529,0.7153 0.45239,0.1508 0.96299,-0.093 1.43059,0 0.73934,0.1479 1.40654,0.5674 2.14588,0.7153 0.46761,0.093 0.9782,-0.1508 1.43059,0 0.31989,0.1066 0.4137,0.5645 0.7153,0.7153 0.21326,0.1066 0.50203,-0.1067 0.71529,0 0.3016,0.1508 0.4137,0.5645 0.7153,0.7153 0.21326,0.1066 0.47686,0 0.71529,0 0.23843,0.2384 0.4137,0.5645 0.71529,0.7153 0.42652,0.2132 0.9782,-0.1508 1.43059,0 0.47687,0.2384 0.95373,0.4768 1.43059,0.7153 0.47687,0 0.9782,-0.1508 1.43059,0 0.31989,0.1066 0.4137,0.5645 0.7153,0.7152 0.25867,0.1294 3.07895,0 3.57647,0 2.62275,0 5.24549,0 7.86824,0 10.96785,0 21.9357,0 32.90355,0 1.90745,0 3.8149,0 5.72236,0 0.23843,0 0.54669,-0.1685 0.71529,0 0.0288,0.029 0,2.5985 0,2.8612 0,1.9075 -0.23843,-0.2384 0.7153,0.7153 0.16859,0.1686 0,0.4769 0,0.7153 0,0.2384 0,0.4769 0,0.7153 0,0.693 -0.14217,3.8653 0,4.2918 0.16859,0.5058 0.58598,0.9133 0.71529,1.4306 0.11566,0.4626 -0.1508,0.9782 0,1.4306 0.21326,0.6397 1.05651,0.8694 1.43059,1.4305 0.59148,0.8873 0.79081,2.0082 1.43059,2.8612 0.22976,0.3064 2.64434,2.4275 2.86118,2.8612 0.10663,0.2133 -0.10663,0.502 0,0.7153 0.15079,0.3016 0.56449,0.4137 0.71529,0.7153 0.10663,0.2133 -0.13226,0.5169 0,0.7153 0.53318,0.7998 2.08263,2.0826 2.86118,2.8612 0.23843,0.2384 0.5645,0.4137 0.71529,0.7153 0.10663,0.2132 -0.21326,0.6086 0,0.7153 0.42652,0.2132 0.9782,-0.1508 1.43059,0 0.31989,0.1066 0.4137,0.5645 0.7153,0.7152 0.21326,0.1067 0.50203,-0.1066 0.71529,0 0.3016,0.1508 0.39541,0.6087 0.7153,0.7153 0.45239,0.1508 0.96796,-0.1156 1.43059,0 0.51723,0.1293 0.9248,0.5467 1.43059,0.7153 0.40356,0.1346 1.67585,0 2.14588,0 1.43059,0 2.86118,0 4.29177,0 0.47686,0 0.95372,0 1.43059,0 0.47686,0 0.96796,-0.1156 1.43058,0 0.51724,0.1293 0.9248,0.5467 1.43059,0.7153 0.46346,0.1545 2.99087,0 3.57648,0 2.14588,0 4.29176,0 6.43765,0 1.90745,0 3.8149,0 5.72235,0 0.23844,0 0.47687,0 0.7153,0 0.23843,0 0.5467,-0.1686 0.71529,0 0.1686,0.1686 -0.16859,0.5467 0,0.7153 0.25109,0.2511 3.0824,-0.247 3.57648,0 0.30159,0.1508 0.4137,0.5645 0.71529,0.7153 0.19356,0.097 3.98366,0 4.29177,0 3.33804,0 6.67608,0 10.01412,0 7.15295,0 14.30589,0 21.45884,0 2.14588,0 4.29177,0 6.43765,0 1.19216,0 2.40747,0.2338 3.57647,0 0.5228,-0.1045 0.9047,-0.6276 1.43059,-0.7153 0.94075,-0.1568 1.90746,0 2.86118,0 1.43059,0 2.86118,0 4.29177,0 4.5302,0 9.0604,0 13.5906,0 1.66902,0 3.33804,0 5.00706,0 0.71529,0 1.44032,0.1176 2.14588,0 0.74373,-0.1239 1.40216,-0.5913 2.14588,-0.7153 0.70557,-0.1176 1.43059,0 2.14589,0 0.23843,0 0.4891,0.075 0.71529,0 0.50579,-0.1686 0.9248,-0.5467 1.43059,-0.7153 0.49201,-0.164 1.72385,0.2111 2.14589,0 0.30159,-0.1508 0.4137,-0.5645 0.71529,-0.7153 0.26071,-0.1303 3.16432,0 3.57647,0 2.38432,0 4.76863,0 7.15295,0 0.47686,0 0.95373,0 1.43059,0 0.23843,0 0.50203,0.1067 0.71529,0 0.3016,-0.1508 0.39541,-0.6086 0.7153,-0.7153 0.45239,-0.1507 0.96021,0.078 1.43059,0 0.9697,-0.1616 1.90745,-0.4768 2.86117,-0.7152 1.19216,0 2.39024,0.1186 3.57648,0 1.20973,-0.121 2.36814,-0.5811 3.57647,-0.7153 0.94789,-0.1054 1.90745,0 2.86118,0 1.90745,0 3.8149,0 5.72236,0 0.71529,0 1.43777,0.1011 2.14588,0 0.9732,-0.1391 1.89148,-0.5537 2.86118,-0.7153 0.8991,-0.1499 2.57659,0 3.57647,0 2.38432,0 4.76863,0 7.15295,0 0.37404,0 2.67309,0.094 2.86117,0 0.3016,-0.1508 0.39541,-0.6087 0.7153,-0.7153 0.45239,-0.1508 0.96796,0.1156 1.43059,0 4.05263,-2.0263 -1.0663,0.2665 2.86118,-0.7153 3.45411,-0.8636 -0.0355,-0.3399 2.14588,-1.4306 0.21326,-0.1066 0.50204,0.1066 0.71529,0 0.20991,-0.105 1.22069,-1.3256 1.43059,-1.4306 0.67439,-0.3372 1.4715,-0.3781 2.14589,-0.7153 6.74691,-3.3735 -0.15663,-0.134 2.86118,-2.1459 0.36021,-1.5759 1.47149,-0.3781 2.14588,-0.7153 0.30159,-0.1508 0.4137,-0.5645 0.71529,-0.7153 0.21326,-0.1066 0.5467,0.1686 0.7153,0 0.33719,-0.3372 -0.33719,-1.0934 0,-1.4306 0.1686,-0.1686 0.4891,0.075 0.71529,0 0.50579,-0.1686 0.95373,-0.4768 1.43059,-0.7153 0.7153,-0.2384 1.42091,-0.5081 2.14589,-0.7152 0.94525,-0.2701 1.94841,-0.3502 2.86117,-0.7153 0.31308,-0.1253 0.47687,-0.4769 0.7153,-0.7153 0.23843,-0.2385 0.5645,-0.4137 0.71529,-0.7153 0.10663,-0.2133 -0.16859,-0.5467 0,-0.7153 0.377,-0.377 1.00407,-0.3954 1.43059,-0.7153 0.53951,-0.4047 0.95373,-0.9537 1.43059,-1.4306 0.7153,-0.7153 1.43059,-1.4306 2.14589,-2.1459 0.23843,-0.2384 0.4137,-0.5645 0.71529,-0.7153 0.21326,-0.1066 0.5467,0.1686 0.71529,0 0.1686,-0.1686 0,-0.4769 0,-0.7153 0,-0.2384 0,-0.4768 0,-0.7153 0,-1.3145 -0.20546,-3.1617 0,-4.2917 0.31052,-1.7079 0.95373,-3.3381 1.43059,-5.0071 0.47687,-2.3843 1.03085,-4.7545 1.43059,-7.153 0.70387,-4.2231 0.26311,-6.24852 2.14589,-10.01408 0.0286,-0.0572 2.03143,-0.0572 2.14588,0 0.3016,0.1508 0.39541,0.60867 0.7153,0.7153 0.45239,0.15079 0.95372,0 1.43058,0 0.95373,0 1.90746,0 2.86118,0 3.81491,0 7.62981,0 11.44472,0 6.19922,0 12.39843,0 18.59765,0 1.90746,0 3.81491,0 5.72236,0 0.32214,0 1.9282,0.10884 2.14588,0 0.3016,-0.1508 0.4137,-0.5645 0.7153,-0.7153 0.42204,-0.21102 1.65388,0.164 2.14588,0 0.50579,-0.16859 0.91336,-0.58598 1.43059,-0.71529 0.92525,-0.23131 1.9564,0.30159 2.86118,0 0.31989,-0.10663 0.4137,-0.5645 0.7153,-0.7153 0.21325,-0.10663 0.47686,0 0.71529,0 0.47686,0 0.95373,0 1.43059,0 0.71529,0 1.43059,0 2.14588,0 0.7153,0 1.44448,0.14028 2.14589,0 0.52279,-0.10456 0.90779,-0.61073 1.43059,-0.71529 0.7014,-0.14028 1.43058,0 2.14588,0 0.71529,0 1.43059,0 2.14588,0 3.33804,0 6.67609,0 10.01413,0 3.09961,0 6.19922,0 9.29883,0 0.28276,0 3.27098,-0.15275 3.57647,0 0.87513,0.43756 0.90786,1.44891 1.43059,2.14588 2.88074,3.841 0.19208,-1.30802 2.14588,3.57648 0.23843,0.47686 0.47686,0.95372 0.7153,1.43058 0.23843,0.23844 0.56449,0.4137 0.71529,0.71532 0.10663,0.2132 -0.10663,0.502 0,0.7153 0.1508,0.3016 0.60867,0.3954 0.7153,0.7153 0.15079,0.4524 -0.21326,1.004 0,1.4306 0.10663,0.2132 0.54669,-0.1686 0.71529,0 0.1686,0.1686 -0.0754,0.4891 0,0.7153 0.23843,0.4768 0.47686,0.9537 0.71529,1.4305 0,0.2385 -0.0754,0.4891 0,0.7153 0.3372,1.0116 1.03458,1.8712 1.43059,2.8612 0.28003,0.7001 0.37811,1.4715 0.7153,2.1459 0.1508,0.3016 0.60866,0.3954 0.71529,0.7153 0.1508,0.4524 -0.26451,1.0338 0,1.4306 0.29574,0.4436 1.0536,0.3383 1.43059,0.7153 0.60789,0.6079 0.82271,1.538 1.43059,2.1459 0.60788,0.6078 1.43059,0.9537 2.14589,1.4305 0.71529,0.4769 1.37696,1.0462 2.14588,1.4306 0.67438,0.3372 1.49934,0.3274 2.14588,0.7153 0.57828,0.347 0.8274,1.129 1.43059,1.4306 1.55256,0.7763 3.45451,0.6543 5.00706,1.4306 0.76892,0.3845 1.35572,1.092 2.14589,1.4306 3.86776,1.6576 1.65062,0.1559 5.00706,0.7153 0.74373,0.1239 1.39947,0.6087 2.14588,0.7153 6.18772,0 -0.0774,-0.3016 5.00707,0.7153 0.70982,0.1419 2.82495,0 3.57647,0 0.23843,0 0.4891,-0.075 0.71529,0 0.50579,0.1686 0.9078,0.6107 1.43059,0.7153 0.70141,0.1403 1.43611,-0.089 2.14589,0 4.79025,0.5988 2.62582,0.9937 7.86824,1.4306 1.42564,0.1188 2.86117,0 4.29176,0 1.66902,0.2384 3.32802,0.5626 5.00707,0.7153 0.9498,0.086 1.90745,0 2.86117,0 0.47687,0 0.96797,-0.1157 1.43059,0 0.51723,0.1293 0.9078,0.6107 1.43059,0.7153 0.75534,0.151 3.97261,0 5.00706,0 0.47687,0 0.96797,-0.1157 1.43059,0 0.51723,0.1293 0.9248,0.5467 1.43059,0.7153 0.45021,0.15 2.93173,0 3.57647,0 2.62275,0 5.2455,0 7.86825,0 1.66902,0 3.33804,0 5.00706,0 0.70727,0 2.23942,0.1554 2.86118,0 1.46294,-0.3658 2.81307,-1.1349 4.29176,-1.4306 0.46761,-0.094 0.96797,0.1156 1.43059,0 3.45412,-0.8636 -0.0354,-0.34 2.14589,-1.4306 0.21326,-0.1067 0.54669,0.1686 0.71529,0 0.0288,-0.029 0,-2.5985 0,-2.8612 0,-1.1922 0,-2.3843 0,-3.5765 0,-0.4768 0.11566,-0.9679 0,-1.4306 -0.12931,-0.5172 -0.3383,-1.0536 -0.71529,-1.4306 -0.377,-0.377 -1.00407,-0.3954 -1.43059,-0.7153 -2.63621,-1.9771 -0.46549,-0.7758 -2.14589,-3.5764 -0.35101,-0.5851 -2.56407,-2.267 -2.86118,-2.8612 -0.10663,-0.2133 0.10663,-0.502 0,-0.7153 -0.15079,-0.3016 -0.56449,-0.4137 -0.71529,-0.7153 -0.10663,-0.2133 0.10663,-0.502 0,-0.7153 -0.1508,-0.3016 -0.5645,-0.4137 -0.71529,-0.7153 -0.10663,-0.2132 0,-0.4768 0,-0.7153 0,-0.2384 0,-0.4768 0,-0.7153 0,-3.5764 0,-7.15292 0,-10.72939 0,-1.43059 0,-2.86118 0,-4.29177 0,-0.47686 0,-0.95372 0,-1.43059 0,-0.23843 0.10663,-0.50203 0,-0.71529 -0.1508,-0.30159 -0.5645,-0.4137 -0.7153,-0.71529 -0.21326,-0.42652 0.33719,-1.0934 0,-1.43059 -0.1686,-0.1686 -0.5467,0.16859 -0.71529,0 -0.1686,-0.1686 0.16859,-0.5467 0,-0.7153 -0.1686,-0.16859 -0.5467,0.1686 -0.7153,0 -0.16859,-0.16859 0.1686,-0.5467 0,-0.71529 -0.16859,-0.1686 -0.5467,0.16859 -0.71529,0 -0.1686,-0.1686 0.16859,-0.5467 0,-0.7153 -0.1686,-0.16859 -0.47687,0 -0.7153,0 -0.23843,0 -0.47686,0 -0.71529,0 -2.14589,0 -4.29177,0 -6.43765,0 -1.19216,0 -2.38432,0 -3.57648,0 -0.23843,0 -0.54669,0.1686 -0.71529,0 -0.1686,-0.16859 0.1686,-0.5467 0,-0.71529 -0.33719,-0.33719 -1.00407,0.21326 -1.43059,0 -0.30159,-0.1508 -0.3954,-0.60867 -0.71529,-0.7153 -0.4524,-0.15079 -0.96299,0.0935 -1.43059,0 -5.11702,-1.70567 0.783,0.01 -4.29177,-0.71529 -1.9464,-0.27806 -3.77138,-1.18672 -5.72236,-1.43059 -0.94636,-0.1183 -1.91481,0.1183 -2.86118,0 -8.51842,-1.0648 0.80568,-0.15623 -4.29176,-1.43059 -0.46263,-0.11566 -0.96797,0.11566 -1.43059,0 -0.51723,-0.12931 -0.9248,-0.5467 -1.43059,-0.71529 -0.2262,-0.0754 -0.47686,0 -0.7153,0 -0.71529,-0.23844 -1.47149,-0.37811 -2.14588,-0.7153 -0.76892,-0.38446 -1.37696,-1.04613 -2.14588,-1.43059 -0.67439,-0.33719 -1.4715,-0.3781 -2.14589,-0.71529 -0.30159,-0.1508 -0.43473,-0.52826 -0.71529,-0.7153 -0.44361,-0.29573 -0.98698,-0.41955 -1.43059,-0.71529 -0.28056,-0.18704 -0.43473,-0.52825 -0.7153,-0.7153 -0.36021,-1.57591 -1.47149,-0.3781 -2.14588,-0.71529 -0.19076,-0.0954 -1.23983,-1.33521 -1.43059,-1.43059 -0.21326,-0.10663 -0.5467,0.1686 -0.71529,0 -0.1686,-0.1686 0.16859,-0.5467 0,-0.71529 -0.1686,-0.1686 -0.5467,0.16859 -0.7153,0 0,-1.90746 0.23843,0.23843 -0.71529,-0.7153 -0.1686,-0.1686 0.0754,-0.4891 0,-0.71529 -0.1686,-0.50579 -0.44099,-0.97342 -0.7153,-1.43059 -4.09987,-6.14981 0.81556,1.63112 -2.14588,-4.29177 -0.38446,-0.76892 -1.00407,-1.39947 -1.43059,-2.14588 -3.6301,-6.35267 0.62423,0.22104 -2.86118,-5.00707 -0.28315,-0.42472 -1.99693,-3.14435 -2.86118,-3.57647 -0.21326,-0.10663 -0.48909,0.0754 -0.71529,0 -0.50579,-0.16859 -0.91336,-0.58599 -1.43059,-0.71529 -0.46262,-0.11566 -0.95852,0.0674 -1.43059,0 -1.20355,-0.17194 -2.38032,-0.49781 -3.57647,-0.7153 -1.42693,-0.25944 -2.86484,-0.45585 -4.29177,-0.71529 -2.39231,-0.43497 -4.73628,-1.16207 -7.15294,-1.43059 -3.8626,-0.42918 -2.14589,0.53647 -6.43766,0 -0.74816,-0.0935 -1.40215,-0.59134 -2.14588,-0.7153 -0.70556,-0.11759 -1.45195,0.17349 -2.14588,0 -0.32713,-0.0818 -0.39541,-0.60866 -0.7153,-0.71529 -0.45239,-0.1508 -0.96298,0.0935 -1.43059,0 -0.73934,-0.14787 -1.43059,-0.47686 -2.14588,-0.71529 -0.7153,-0.23844 -1.44583,-0.43528 -2.14588,-0.7153 -0.49502,-0.19801 -0.93558,-0.51729 -1.43059,-0.71529 -1.42278,-0.56912 -2.86899,-0.86148 -4.29177,-1.43059 -0.99003,-0.39602 -1.8496,-1.0934 -2.86118,-1.43059 -0.27834,-0.0928 -2.03488,0.111 -2.14588,0 -0.1686,-0.1686 0.21326,-0.60867 0,-0.7153 -0.42652,-0.21326 -0.96299,0.0935 -1.43059,0 -0.73935,-0.14787 -1.43059,-0.47686 -2.14589,-0.71529 -0.71529,-0.23843 -1.47149,-0.3781 -2.14588,-0.7153 -0.85835,-0.42917 -1.28753,-1.7167 -2.14588,-2.14588 -0.21326,-0.10663 -0.5467,0.1686 -0.7153,0 -0.16859,-0.1686 0.1686,-0.5467 0,-0.71529 -0.0867,-0.0867 -1.13691,0.0734 -1.43059,0 -0.73147,-0.18287 -1.43059,-0.47687 -2.14588,-0.7153 -0.7153,-0.23843 -1.43059,-0.47686 -2.14588,-0.71529 -1.19216,-0.47687 -2.35837,-1.02456 -3.57648,-1.43059 -0.93263,-0.31088 -1.95758,-0.32804 -2.86118,-0.7153 -0.79016,-0.33864 -1.43058,-0.95372 -2.14588,-1.43059 -1.43059,-0.95372 -2.91628,-1.82956 -4.29177,-2.86117 -0.53951,-0.40464 -0.86946,-1.05651 -1.43059,-1.43059 -0.4436,-0.29574 -0.9248,-0.5467 -1.43059,-0.7153 -0.22619,-0.0754 -0.54669,0.1686 -0.71529,0 -0.1686,-0.16859 0.1686,-0.5467 0,-0.71529 -0.1686,-0.1686 -0.51691,0.13226 -0.71529,0 -0.56113,-0.37409 -0.95373,-0.95373 -1.43059,-1.43059 -0.7153,-0.47687 -1.41688,-0.97496 -2.14589,-1.43059 -6.90182,-4.31364 -0.81929,-0.30776 -5.72235,-3.57647 -0.46153,-0.30769 -2.69667,-1.92594 -3.57648,-2.14589 -0.46262,-0.11565 -1.00407,0.21326 -1.43059,0 -0.21326,-0.10663 0.1686,-0.5467 0,-0.71529 -0.069,-0.069 -1.14116,0.0579 -1.43058,0 -0.96399,-0.1928 -1.90328,-0.49424 -2.86118,-0.7153 -2.14194,-0.49429 -4.28563,-0.98225 -6.43765,-1.43059 -3.57064,-0.74388 -7.17282,-1.33756 -10.72942,-2.14588 -1.69265,-0.38469 -3.30497,-1.09017 -5.00706,-1.43059 -0.70141,-0.14028 -1.44448,0.14028 -2.14589,0 -0.52279,-0.10456 -0.91336,-0.58599 -1.43059,-0.71529 -0.46262,-0.11566 -0.95372,0 -1.43059,0 -0.47686,-0.23843 -0.91336,-0.58599 -1.43059,-0.7153 -0.46262,-0.11565 -0.95372,0 -1.43059,0 -0.95372,-0.23843 -1.94069,-0.37011 -2.86117,-0.71529 -0.99841,-0.3744 -1.8811,-1.01056 -2.86118,-1.43059 -0.69302,-0.29701 -1.45286,-0.41829 -2.14589,-0.7153 -0.98008,-0.42003 -1.90745,-0.95372 -2.86117,-1.43059 -0.95373,-0.47686 -1.94684,-0.88198 -2.86118,-1.43058 -1.47434,-0.88461 -2.84122,-1.9381 -4.29177,-2.86118 -3.29326,-2.09572 -3.25145,-1.98337 -6.43765,-3.57648 -0.95373,-0.47686 -1.83591,-1.13765 -2.86118,-1.43058 -0.68777,-0.19651 -1.43059,0 -2.14588,0 -0.47687,0 -0.95373,0 -1.43059,0 -1.90745,0 -3.81491,0 -5.72236,0 -1.43059,0 -2.86118,0 -4.29177,0 -0.32213,0 -1.92819,-0.10885 -2.14588,0 -1.58156,0.79077 -0.22197,0.44394 -0.71529,1.43058 -0.1508,0.3016 -0.52826,0.43474 -0.7153,0.7153 -0.29574,0.44361 -0.41956,0.98698 -0.71529,1.43059 -0.72928,1.09391 -0.98768,0.56193 -2.14589,1.43059 -0.53951,0.40463 -0.8274,1.12899 -1.43059,1.43059 -0.87929,0.43964 -1.95758,0.32804 -2.86117,0.71529 -0.79017,0.33864 -1.35572,1.09195 -2.14589,1.43059 -0.90359,0.38725 -1.95758,0.32804 -2.86118,0.71529 -0.79016,0.33865 -1.33032,1.15874 -2.14588,1.43059 -1.13098,0.377 -2.44549,-0.37699 -3.57647,0 -0.31989,0.10663 -0.4137,0.5645 -0.7153,0.7153 -0.21326,0.10663 -0.47686,0 -0.71529,0 -0.23843,0 -0.47687,0 -0.7153,0 -0.71529,0 -1.43059,0 -2.14588,0 -3.8149,0 -7.62981,0 -11.44471,0 -5.2455,0 -10.49099,0 -15.73648,0 -2.26878,0 -3.59588,0 -5.72236,0 -0.7153,0 -1.43059,0 -2.14588,0 -0.47687,0 -0.96299,0.0935 -1.43059,0 -0.73935,-0.14787 -1.40216,-0.59134 -2.14589,-0.7153 -0.70556,-0.11759 -1.43059,0 -2.14588,0 -2.38432,0 -4.76863,0 -7.15295,0 -5.48392,0 -10.96785,0 -16.45177,0 -9.0604,0 -18.1208,0 -27.1812,0 -2.38431,0 -4.76863,0 -7.15294,0 -1.66902,0 -3.34825,-0.18431 -5.00706,0 -2.41667,0.26852 -4.7314,1.21045 -7.15295,1.43059 -1.42471,0.12952 -2.86539,-0.10972 -4.29177,0 -1.681,0.12931 -3.32606,0.58599 -5.00706,0.7153 -1.42637,0.10972 -2.86705,-0.12952 -4.29177,0 -1.21077,0.11007 -2.36814,0.58103 -3.57647,0.71529 -0.94789,0.10532 -1.90745,0 -2.86118,0 -1.43059,0 -2.86118,0 -4.29176,0 -1.90746,0 -3.81491,0 -5.72236,0 -0.24368,0 -2.47406,0.12904 -2.86118,0 -0.50579,-0.16859 -0.9248,-0.5467 -1.43059,-0.71529 -0.22619,-0.0754 -0.50203,0.10663 -0.71529,0 -0.3016,-0.1508 -0.4137,-0.5645 -0.7153,-0.7153 -0.21769,-0.10884 -1.82374,0 -2.14588,0 -2.14589,0 -4.29177,0 -6.43765,0 -4.5302,0 -9.0604,0 -13.5906,0 -3.8149,0 -7.62981,0 -11.44471,0 -0.48441,0 -4.6812,-0.10862 -5.00706,0 -0.31989,0.10663 -0.47687,0.47687 -0.7153,0.7153 -0.23843,0.23843 -0.5645,0.4137 -0.71529,0.71529 -0.3372,0.67439 -0.29706,1.51853 -0.7153,2.14589 -0.56112,0.84168 -1.49828,1.36876 -2.14588,2.14588 -0.55035,0.66042 -0.89356,1.47459 -1.43059,2.14588 -0.42129,0.52661 -0.95373,0.95373 -1.43059,1.43059 -0.23843,0.23843 -0.5645,0.4137 -0.71529,0.7153 -0.10663,0.21326 0.10663,0.50203 0,0.71529 -0.1508,0.3016 -0.5645,0.4137 -0.7153,0.7153 -0.10663,0.21326 0.0578,0.48398 0,0.71529 -0.18287,0.73148 -0.45055,1.4399 -0.71529,2.14588 -0.90168,2.40448 -2.12328,4.69327 -2.86118,7.15295 -0.34935,1.16449 -0.45156,2.38966 -0.7153,3.57647 -0.42652,1.91934 -0.89044,3.83185 -1.43059,5.72236 -0.23843,0.71529 -0.47686,1.43059 -0.71529,2.14588 -0.23843,0.23843 -0.60867,0.39541 -0.7153,0.7153 -0.15079,0.45239 0.1508,0.97819 0,1.43059 -0.10662,0.31989 -0.60866,0.3954 -0.71529,0.71529 -0.1508,0.45239 0,0.95373 0,1.43059 -0.23843,0.7153 -0.41828,1.45286 -0.71529,2.14588 -0.42004,0.98009 -1.01056,1.8811 -1.43059,2.86118 -2.03914,4.75798 1.01722,-0.79197 -2.14589,5.00706 -0.92049,1.68758 -2.0015,3.28771 -2.86118,5.00707 -1.87233,3.74466 -1.42846,4.46794 -3.57647,7.15294 -0.84257,1.05322 -1.90745,1.90745 -2.86118,2.86118 -0.23843,0.23843 -0.47686,0.47686 -0.71529,0.7153 -0.23843,0.23843 -0.5645,0.4137 -0.7153,0.71529 -0.63311,1.26623 1.06396,0.24442 -0.71529,1.43059 -0.44361,0.29574 -0.95373,0.47686 -1.43059,0.71529 -2.31245,1.15623 -4.78864,1.7865 -7.15295,2.86118 -2.4268,1.1031 -4.71695,2.49381 -7.15294,3.57647 -1.17333,0.52148 -2.454062,0.80703 -3.576474,1.43059 -1.042133,0.57897 -1.891079,1.45296 -2.861178,2.14589 -1.399096,0.99935 -2.79895,2.00814 -4.291767,2.86118 -0.942403,0.53851 -6.175794,3.21004 -7.152946,3.57647 -0.920485,0.34518 -1.907452,0.47686 -2.861178,0.71529 -1.907453,0.47687 -3.782952,1.10736 -5.722357,1.43059 -0.470375,0.0784 -0.953726,0 -1.430589,0 -0.715295,0 -1.430589,0 -2.145884,0 -0.476863,0 -0.978197,-0.1508 -1.430589,0 -0.319889,0.10663 -0.4137,0.5645 -0.715295,0.7153 -0.184939,0.0925 -3.784765,0 -4.291767,0 -3.338041,0 -6.676083,0 -10.014124,0 -1.907452,0 -3.814904,0 -5.722357,0 -0.715294,0 -1.440321,-0.1176 -2.145883,0 -0.944826,0.15747 -2.678421,0.89175 -3.576473,1.43059 -0.737167,0.4423 -1.355716,1.09194 -2.145884,1.43059 -0.903591,0.38725 -1.915925,0.44522 -2.861178,0.71529 -0.724976,0.20714 -1.420908,0.50816 -2.145884,0.71529 -0.945253,0.27008 -1.928548,0.40442 -2.861178,0.71532 -4.43991,1.4799 2.377296,-0.058 -3.576473,1.4306 -0.462625,0.1156 -1.00407,-0.2133 -1.430589,0 -0.301595,0.1508 -0.4137,0.5645 -0.715295,0.7153 -0.426519,0.2132 -1.093396,-0.3372 -1.430589,0 -0.168596,0.1686 0,0.4768 0,0.7153 0,1.1921 0,2.3843 0,3.5764 0,0.2385 0.168597,0.5467 0,0.7153 -0.168596,0.1686 -0.502035,-0.1066 -0.715294,0 -0.301595,0.1508 -0.4137,0.5645 -0.715295,0.7153 -0.283608,0.1418 -1.999651,-0.1462 -2.145884,0 -0.168596,0.1686 0.168597,0.5467 0,0.7153 -0.168596,0.1686 -0.546698,-0.1686 -0.715294,0 -0.168597,0.1686 0,0.4769 0,0.7153 0,0.2384 0,0.4769 0,0.7153 0,0.8349 0.139513,3.7337 0,4.2918 -0.129308,0.5172 -0.517288,0.9355 -0.715295,1.4306 -0.280023,0.7 -0.435271,1.4458 -0.715294,2.1458 -0.986647,2.4667 -0.639812,0.4134 -1.43059,3.5765 -0.294866,1.1795 -0.476863,2.3843 -0.715294,3.5765 -0.999726,4.9986 -0.515424,2.3772 -1.430589,7.8682 -0.238432,1.4306 -0.611964,2.8452 -0.715295,4.2918 -0.1359,1.9026 0,3.8149 0,5.7224 0,1.669 0,3.338 0,5.007 0,4.0534 0,8.1067 0,12.16 0,1.9075 0,3.8149 0,5.7224 0,0.2384 0,0.4768 0,0.7153 0,0.2384 0.238432,0.7153 0,0.7153 -0.238431,0 0,-0.4769 0,-0.7153 0,-0.4769 0,-0.9538 0,-1.4306 0,-0.3373 -0.03242,-3.5441 0,-3.5765 0.168597,-0.1686 0.489099,0.075 0.715295,0 1.011579,-0.3372 1.907452,-0.9537 2.861178,-1.4306 0.476863,-0.2384 0.913359,-0.586 1.430589,-0.7153 0.631046,-0.1577 2.248416,0.2043 2.861178,0 0.50579,-0.1686 0.907794,-0.6107 1.43059,-0.7153 0.701404,-0.1402 1.436112,0.089 2.145883,0 1.206379,-0.1508 2.380317,-0.4978 3.576473,-0.7153 1.426929,-0.2594 2.864839,-0.4558 4.291768,-0.7153 2.028146,-0.3687 4.428481,-0.8565 6.437651,-1.4305 0.724976,-0.2072 1.414409,-0.5325 2.145883,-0.7153 1.179468,-0.2949 2.407484,-0.3813 3.576473,-0.7153 1.040496,-0.2973 2.855833,-1.7135 3.576473,-2.1459 0.457172,-0.2743 0.973418,-0.441 1.430589,-0.7153 0.737167,-0.4423 1.430589,-0.9537 2.145884,-1.4306 0.715295,-0.4769 1.485462,-0.8802 2.145884,-1.4306 3.553805,-2.9615 1.150145,-1.0099 2.861178,-3.5765 0.982677,-1.474 1.407029,0.047 2.145884,-1.4306 0.213259,-0.4265 -0.337193,-1.0933 0,-1.4305 0.168596,-0.1686 0.502035,0.1066 0.715294,0 0.301595,-0.1508 0.4137,-0.5645 0.715295,-0.7153 0.217688,-0.1089 1.823745,0 2.145884,0 0.238431,0 0.546698,0.1686 0.715294,0 0.337193,-0.3372 -0.442756,-1.6077 0,-1.4306 1.290845,0.5163 2.8867,0.9388 3.576473,2.1459 0.487743,0.8535 -0.522497,1.8971 -0.715295,2.8611 -0.04676,0.2338 -0.168596,0.5467 0,0.7153 0.168597,0.1686 0.546698,-0.1686 0.715295,0 0.168597,0.1686 -0.168597,0.5467 0,0.7153 0.168597,0.1686 0.546698,0.1686 0.715295,0 0.168596,-0.1686 0,-0.4768 0,-0.7153 0,-1.6983 0.05783,-0.484 -0.715295,-3.5764 z"
       id="path4063"
       inkscape:connector-curvature="0" />
  </g>
</svg>
