<?xml version="1.0" encoding="UTF-8" standalone="no"?>
<!-- Created with Inkscape (http://www.inkscape.org/) -->

<svg
   xmlns:dc="http://purl.org/dc/elements/1.1/"
   xmlns:cc="http://creativecommons.org/ns#"
   xmlns:rdf="http://www.w3.org/1999/02/22-rdf-syntax-ns#"
   xmlns:svg="http://www.w3.org/2000/svg"
   xmlns="http://www.w3.org/2000/svg"
   xmlns:xlink="http://www.w3.org/1999/xlink"
   xmlns:sodipodi="http://sodipodi.sourceforge.net/DTD/sodipodi-0.dtd"
   xmlns:inkscape="http://www.inkscape.org/namespaces/inkscape"
   version="1.1"
   width="210mm"
   height="297mm"
   id="svg2"
   inkscape:version="0.48.2 r9819"
   sodipodi:docname="vw_camper.svg"
   enable-background="new">
  <sodipodi:namedview
     pagecolor="#ffffff"
     bordercolor="#666666"
     borderopacity="1"
     objecttolerance="10"
     gridtolerance="10"
     guidetolerance="10"
     inkscape:pageopacity="0"
     inkscape:pageshadow="2"
     inkscape:window-width="1920"
     inkscape:window-height="1176"
     id="namedview3165"
     showgrid="false"
     inkscape:zoom="11.184203"
     inkscape:cx="625.59085"
     inkscape:cy="47.93713"
     inkscape:window-x="0"
     inkscape:window-y="24"
     inkscape:window-maximized="1"
     inkscape:current-layer="layer3" />
  <defs
     id="defs4">
    <linearGradient
       id="linearGradient6068">
      <stop
         id="stop6070"
         style="stop-color:#e6e6e6;stop-opacity:1"
         offset="0" />
      <stop
         id="stop6076"
         style="stop-color:#575a5a;stop-opacity:1"
         offset="0.59947932" />
      <stop
         id="stop6078"
         style="stop-color:#9ea0a0;stop-opacity:1"
         offset="0.89921898" />
      <stop
         id="stop6072"
         style="stop-color:#e6e6e6;stop-opacity:1"
         offset="1" />
    </linearGradient>
    <linearGradient
       id="linearGradient6058">
      <stop
         id="stop6060"
         style="stop-color:#000000;stop-opacity:1"
         offset="0" />
      <stop
         id="stop6066"
         style="stop-color:#000000;stop-opacity:1"
         offset="0.90476191" />
      <stop
         id="stop6062"
         style="stop-color:#181d1d;stop-opacity:1"
         offset="1" />
    </linearGradient>
    <linearGradient
       id="linearGradient5618">
      <stop
         id="stop5628"
         style="stop-color:#ff0043;stop-opacity:0.84397161"
         offset="0" />
      <stop
         id="stop5632"
         style="stop-color:#dd0000;stop-opacity:0.81560284"
         offset="0.04421769" />
      <stop
         id="stop5634"
         style="stop-color:#b70000;stop-opacity:0.8652482"
         offset="0.9285714" />
      <stop
         id="stop5622"
         style="stop-color:#ff0000;stop-opacity:0.66666669"
         offset="1" />
    </linearGradient>
    <linearGradient
       id="linearGradient5600">
      <stop
         id="stop5602"
         style="stop-color:#ff00ff;stop-opacity:0.83137256"
         offset="0" />
    </linearGradient>
    <linearGradient
       id="linearGradient5574">
      <stop
         id="stop5576"
         style="stop-color:#47802a;stop-opacity:1"
         offset="0" />
    </linearGradient>
    <radialGradient
       cx="447.79794"
       cy="670.03107"
       r="27.938305"
       fx="447.79794"
       fy="670.03107"
       id="radialGradient6074-7"
       xlink:href="#linearGradient6068-1"
       gradientUnits="userSpaceOnUse"
       gradientTransform="matrix(1,0,0,0.98277008,0,11.544581)" />
    <linearGradient
       id="linearGradient6068-1">
      <stop
         id="stop6070-4"
         style="stop-color:#e6e6e6;stop-opacity:1"
         offset="0" />
      <stop
         id="stop6076-5"
         style="stop-color:#575a5a;stop-opacity:1"
         offset="0.59947932" />
      <stop
         id="stop6078-6"
         style="stop-color:#9ea0a0;stop-opacity:1"
         offset="0.89921898" />
      <stop
         id="stop6072-8"
         style="stop-color:#e6e6e6;stop-opacity:1"
         offset="1" />
    </linearGradient>
    <radialGradient
       cx="445.63174"
       cy="668.58698"
       r="45.027073"
       fx="445.63174"
       fy="668.58698"
       id="radialGradient6064-7"
       xlink:href="#linearGradient6058-2"
       gradientUnits="userSpaceOnUse"
       gradientTransform="matrix(1,0,0,0.9465462,0,35.738512)" />
    <linearGradient
       id="linearGradient6058-2">
      <stop
         id="stop6060-7"
         style="stop-color:#000000;stop-opacity:1"
         offset="0" />
      <stop
         id="stop6066-0"
         style="stop-color:#000000;stop-opacity:1"
         offset="0.90476191" />
      <stop
         id="stop6062-4"
         style="stop-color:#181d1d;stop-opacity:1"
         offset="1" />
    </linearGradient>
    <radialGradient
       cx="445.63174"
       cy="668.58698"
       r="45.027073"
       fx="445.63174"
       fy="668.58698"
       id="radialGradient6226"
       xlink:href="#linearGradient6058-2"
       gradientUnits="userSpaceOnUse"
       gradientTransform="matrix(1,0,0,0.9465462,0,35.738512)" />
    <radialGradient
       cx="447.79794"
       cy="670.03107"
       r="27.938305"
       fx="447.79794"
       fy="670.03107"
       id="radialGradient6074-7-5"
       xlink:href="#linearGradient6068-1-6"
       gradientUnits="userSpaceOnUse"
       gradientTransform="matrix(1,0,0,0.98277008,0,11.544581)" />
    <linearGradient
       id="linearGradient6068-1-6">
      <stop
         id="stop6070-4-7"
         style="stop-color:#e6e6e6;stop-opacity:1"
         offset="0" />
      <stop
         id="stop6076-5-8"
         style="stop-color:#575a5a;stop-opacity:1"
         offset="0.59947932" />
      <stop
         id="stop6078-6-6"
         style="stop-color:#9ea0a0;stop-opacity:1"
         offset="0.89921898" />
      <stop
         id="stop6072-8-6"
         style="stop-color:#e6e6e6;stop-opacity:1"
         offset="1" />
    </linearGradient>
    <radialGradient
       cx="445.63174"
       cy="668.58698"
       r="45.027073"
       fx="445.63174"
       fy="668.58698"
       id="radialGradient6226-3"
       xlink:href="#linearGradient6058-2-4"
       gradientUnits="userSpaceOnUse"
       gradientTransform="matrix(1,0,0,0.9465462,0,35.738512)" />
    <linearGradient
       id="linearGradient6058-2-4">
      <stop
         id="stop6060-7-4"
         style="stop-color:#000000;stop-opacity:1"
         offset="0" />
      <stop
         id="stop6066-0-2"
         style="stop-color:#000000;stop-opacity:1"
         offset="0.90476191" />
      <stop
         id="stop6062-4-8"
         style="stop-color:#181d1d;stop-opacity:1"
         offset="1" />
    </linearGradient>
    <radialGradient
       cx="445.63174"
       cy="668.58698"
       r="45.027073"
       fx="445.63174"
       fy="668.58698"
       id="radialGradient6287"
       xlink:href="#linearGradient6058-2-4"
       gradientUnits="userSpaceOnUse"
       gradientTransform="matrix(1,0,0,0.9465462,0,35.738512)" />
    <linearGradient
       x1="-3.5546951"
       y1="609.90375"
       x2="566.82074"
       y2="609.90375"
       id="linearGradient5626-1"
       xlink:href="#linearGradient5618-5"
       gradientUnits="userSpaceOnUse" />
    <linearGradient
       id="linearGradient5618-5">
      <stop
         id="stop5628-9"
         style="stop-color:#ff0043;stop-opacity:0.84397161"
         offset="0" />
      <stop
         id="stop5632-1"
         style="stop-color:#dd0000;stop-opacity:0.81560284"
         offset="0.04421769" />
      <stop
         id="stop5634-6"
         style="stop-color:#b70000;stop-opacity:0.8652482"
         offset="0.9285714" />
      <stop
         id="stop5622-4"
         style="stop-color:#ff0000;stop-opacity:0.66666669"
         offset="1" />
    </linearGradient>
    <linearGradient
       x1="-3.5546951"
       y1="609.90375"
       x2="566.82074"
       y2="609.90375"
       id="linearGradient6357"
       xlink:href="#linearGradient5618-5"
       gradientUnits="userSpaceOnUse"
       gradientTransform="translate(0,2.6171874e-6)" />
    <radialGradient
       cx="445.63174"
       cy="668.58698"
       r="45.027073"
       fx="445.63174"
       fy="668.58698"
       id="radialGradient6226-5"
       xlink:href="#linearGradient6058-2-0"
       gradientUnits="userSpaceOnUse"
       gradientTransform="matrix(1,0,0,0.9465462,0,35.738512)" />
    <linearGradient
       id="linearGradient6058-2-0">
      <stop
         id="stop6060-7-48"
         style="stop-color:#000000;stop-opacity:1"
         offset="0" />
      <stop
         id="stop6066-0-7"
         style="stop-color:#000000;stop-opacity:1"
         offset="0.90476191" />
      <stop
         id="stop6062-4-1"
         style="stop-color:#181d1d;stop-opacity:1"
         offset="1" />
    </linearGradient>
    <radialGradient
       cx="447.79794"
       cy="670.03107"
       r="27.938305"
       fx="447.79794"
       fy="670.03107"
       id="radialGradient6074-7-7"
       xlink:href="#linearGradient6068-1-2"
       gradientUnits="userSpaceOnUse"
       gradientTransform="matrix(1,0,0,0.98277008,0,11.544581)" />
    <linearGradient
       id="linearGradient6068-1-2">
      <stop
         id="stop6070-4-72"
         style="stop-color:#e6e6e6;stop-opacity:1"
         offset="0" />
      <stop
         id="stop6076-5-2"
         style="stop-color:#575a5a;stop-opacity:1"
         offset="0.59947932" />
      <stop
         id="stop6078-6-61"
         style="stop-color:#9ea0a0;stop-opacity:1"
         offset="0.89921898" />
      <stop
         id="stop6072-8-0"
         style="stop-color:#e6e6e6;stop-opacity:1"
         offset="1" />
    </linearGradient>
    <radialGradient
       cx="445.63174"
       cy="668.58698"
       r="45.027073"
       fx="445.63174"
       fy="668.58698"
       id="radialGradient6287-6"
       xlink:href="#linearGradient6058-2-4-1"
       gradientUnits="userSpaceOnUse"
       gradientTransform="matrix(1,0,0,0.9465462,0,35.738512)" />
    <linearGradient
       id="linearGradient6058-2-4-1">
      <stop
         id="stop6060-7-4-5"
         style="stop-color:#000000;stop-opacity:1"
         offset="0" />
      <stop
         id="stop6066-0-2-9"
         style="stop-color:#000000;stop-opacity:1"
         offset="0.90476191" />
      <stop
         id="stop6062-4-8-4"
         style="stop-color:#181d1d;stop-opacity:1"
         offset="1" />
    </linearGradient>
    <radialGradient
       cx="447.79794"
       cy="670.03107"
       r="27.938305"
       fx="447.79794"
       fy="670.03107"
       id="radialGradient6074-7-5-9"
       xlink:href="#linearGradient6068-1-6-0"
       gradientUnits="userSpaceOnUse"
       gradientTransform="matrix(1,0,0,0.98277008,0,11.544581)" />
    <linearGradient
       id="linearGradient6068-1-6-0">
      <stop
         id="stop6070-4-7-9"
         style="stop-color:#e6e6e6;stop-opacity:1"
         offset="0" />
      <stop
         id="stop6076-5-8-1"
         style="stop-color:#575a5a;stop-opacity:1"
         offset="0.59947932" />
      <stop
         id="stop6078-6-6-7"
         style="stop-color:#9ea0a0;stop-opacity:1"
         offset="0.89921898" />
      <stop
         id="stop6072-8-6-7"
         style="stop-color:#e6e6e6;stop-opacity:1"
         offset="1" />
    </linearGradient>
    <linearGradient
       x1="-3.5546951"
       y1="609.90375"
       x2="566.82074"
       y2="609.90375"
       id="linearGradient6357-8"
       xlink:href="#linearGradient5618-5-3"
       gradientUnits="userSpaceOnUse"
       gradientTransform="translate(0,2.6171874e-6)" />
    <linearGradient
       id="linearGradient5618-5-3">
      <stop
         id="stop5628-9-8"
         style="stop-color:#ff0043;stop-opacity:0.84397161"
         offset="0" />
      <stop
         id="stop5632-1-7"
         style="stop-color:#dd0000;stop-opacity:0.81560284"
         offset="0.04421769" />
      <stop
         id="stop5634-6-3"
         style="stop-color:#b70000;stop-opacity:0.8652482"
         offset="0.9285714" />
      <stop
         id="stop5622-4-1"
         style="stop-color:#ff0000;stop-opacity:0.66666669"
         offset="1" />
    </linearGradient>
    <radialGradient
       cx="445.63174"
       cy="668.58698"
       r="45.027073"
       fx="445.63174"
       fy="668.58698"
       id="radialGradient6287-6-3"
       xlink:href="#linearGradient6058-2-4-1-6"
       gradientUnits="userSpaceOnUse"
       gradientTransform="matrix(0.96710061,-1.1753387e-4,0,0.90464905,17.756977,58.445537)" />
    <linearGradient
       id="linearGradient6058-2-4-1-6">
      <stop
         id="stop6060-7-4-5-8"
         style="stop-color:#000000;stop-opacity:1"
         offset="0" />
      <stop
         id="stop6066-0-2-9-4"
         style="stop-color:#000000;stop-opacity:1"
         offset="0.90476191" />
      <stop
         id="stop6062-4-8-4-6"
         style="stop-color:#181d1d;stop-opacity:1"
         offset="1" />
    </linearGradient>
    <radialGradient
       cx="447.79794"
       cy="670.03107"
       r="27.938305"
       fx="447.79794"
       fy="670.03107"
       id="radialGradient6074-7-5-9-6"
       xlink:href="#linearGradient6068-1-6-0-7"
       gradientUnits="userSpaceOnUse"
       gradientTransform="matrix(1,0,0,0.98277008,0,11.544581)" />
    <linearGradient
       id="linearGradient6068-1-6-0-7">
      <stop
         id="stop6070-4-7-9-2"
         style="stop-color:#e6e6e6;stop-opacity:1"
         offset="0" />
      <stop
         id="stop6076-5-8-1-7"
         style="stop-color:#575a5a;stop-opacity:1"
         offset="0.59947932" />
      <stop
         id="stop6078-6-6-7-4"
         style="stop-color:#9ea0a0;stop-opacity:1"
         offset="0.89921898" />
      <stop
         id="stop6072-8-6-7-1"
         style="stop-color:#e6e6e6;stop-opacity:1"
         offset="1" />
    </linearGradient>
  </defs>
  <metadata
     id="metadata7">
    <rdf:RDF>
      <cc:Work
         rdf:about="">
        <dc:format>image/svg+xml</dc:format>
        <dc:type
           rdf:resource="http://purl.org/dc/dcmitype/StillImage" />
        <dc:title />
      </cc:Work>
    </rdf:RDF>
  </metadata>
  <g
     inkscape:groupmode="layer"
     id="layer2"
     inkscape:label="body"
     style="display:inline"
     sodipodi:insensitive="true">
    <g
       transform="translate(-0.87980394,816.03751)"
       id="layer1"
       style="display:inline">
      <g
         transform="translate(10.555288,-443.32208)"
         id="body">
        <title
           id="title6387">body</title>
        <path
           inkscape:connector-curvature="0"
           d="m 0.7590914,598.42552 1.0121219,-45.29245 c -3.0363656,-0.25303 -2.7833352,-9.1091 0.2530304,-8.85607 0.2530305,-18.47122 10.1212183,-60.98034 14.4227363,-61.23337 -5.56667,-1.01212 -1.265152,-4.80758 1.771214,-4.55455 5.313639,-2.27727 32.64093,-11.89243 49.593971,-11.6394 0,-4.30152 0.253031,-6.83182 0.253031,-6.83182 0,0 1.012122,-3.79546 4.301518,-3.79546 3.289396,0 51.377906,-1.94508 51.377906,-1.94508 0,0 0.1422,-6.44594 13.74581,-6.51536 14.58237,-0.0744 12.64851,6.30333 12.64851,6.30333 l 258.78657,-3.27669 c 4.10505,0 4.52627,5.68683 4.52627,9.48229 8.35001,-0.50606 25.55608,-0.75909 48.07579,0.75909 22.51971,1.51818 50.6061,4.30152 55.16064,13.66365 4.55455,9.36212 23.78487,48.32882 25.30305,50.10003 4.55455,0 9.86819,1.51818 9.86819,10.37425 2.78333,2.5303 5.8197,8.60303 5.8197,12.39849 5.8197,0.25303 7.84394,1.26515 7.84394,1.26515 12.65153,16.19395 12.65153,27.07426 12.14547,36.68942 -0.50606,9.61516 -3.79546,35.17124 -14.9288,36.68942 -0.25303,3.28939 0,7.59091 0,7.59091 4.55455,-0.50606 14.42274,6.83183 14.9288,7.33789 0.25303,6.07273 -0.25303,16.19395 -0.25303,16.19395 -2.02425,4.04848 -13.41062,3.28939 -13.41062,3.28939 l -3.03636,-2.02424 c 0,0 -3.54243,-0.50606 -5.56667,2.27727 -2.02425,2.78334 -3.54243,4.30152 -9.1091,4.55455 -5.56667,0.25303 -46.30458,2.53031 -46.30458,2.53031 -1.51818,-34.41215 -16.95304,-44.28034 -19.23031,-45.79852 -2.27728,-1.51818 -25.55608,-1.26515 -25.55608,-1.26515 0,0 -22.01365,-1.26515 -26.06214,1.01212 -16.19395,11.6394 -20.24244,31.62881 -23.78486,37.95457 -3.54243,6.32576 -6.83182,5.31364 -6.83182,5.31364 l 0,5.8197 -6.5788,0 c -1.65879,0.13009 -1.78188,1.86194 -1.77121,3.52264 -0.0611,1.77016 -201.15922,3.81524 -201.15922,3.81524 0,0 -16.66295,-22.80615 -21.00153,-27.58032 -3.18196,-3.50143 -9.61516,-3.51556 -12.90455,-3.54242 -3.29901,-0.0269 -70.595504,0.75909 -75.656113,0.75909 -5.06061,0 -7.590914,2.5303 -8.856067,5.06061 -1.265152,2.5303 -9.868188,16.44698 -9.615157,21.76062 -5.31364,0.75909 -34.412144,0.75909 -34.412144,0.75909 0.253031,3.54243 -2.277274,3.2894 -3.289396,3.2894 -1.012122,0 -22.77274207,0.25303 -24.2909249,0.25303 -1.5181828,0 -4.5545484,-3.2894 -4.5545484,-5.06061 0,-1.77122 -0.2530304,-13.15759 -0.5060609,-14.42274 -0.2530305,-1.26515 8.6030359,-6.32576 10.3742491,-6.32576 0,-2.02425 -0.5060609,-4.55455 -0.5060609,-4.55455 l -4.5545484,-0.75909 -2.7833351,-41.497 z"
           id="path3100"
           style="fill:#e6e6e6;stroke:#000000;stroke-width:1px;stroke-linecap:butt;stroke-linejoin:miter;stroke-opacity:1" />
        <path
           inkscape:connector-curvature="0"
           d="m 80.79472,484.56003 c 0,0 125.57701,-1.67934 128.74909,-1.86593 3.17208,-0.1866 4.10505,3.17208 4.10505,5.78438 0,2.6123 0.18659,45.71525 0.18659,47.58118 0,1.86593 -1.49274,3.17208 -2.98549,3.35867 -1.49274,0.1866 -148.527935,2.6123 -152.259793,2.7989 -3.731858,0.18659 -7.463716,-2.7989 -6.903937,-6.34416 0.559779,-3.54527 -2.052522,-51.31304 29.10849,-51.31304 z"
           id="path3121"
           style="fill:#ffffff;stroke:#000000;stroke-width:1px;stroke-linecap:butt;stroke-linejoin:miter;stroke-opacity:1" />
        <path
           inkscape:connector-curvature="0"
           d="m 237.34615,484.37343 c 6.53075,-0.18659 136.21281,-1.67933 139.94467,-1.86593 3.73186,-0.18659 4.47823,2.05253 4.47823,4.66483 0,2.6123 1.86593,41.42362 1.86593,45.34207 0,3.91845 -0.93297,2.79889 -3.35867,3.35867 -2.42571,0.55978 -140.87763,2.23911 -143.86312,2.23911 -2.98549,0 -3.17208,-3.91845 -3.17208,-6.15756 0,-2.23912 0.74637,-42.35659 0.74637,-44.03592 0,-1.67934 0.37319,-3.54527 3.35867,-3.54527 z"
           id="path3123"
           style="fill:#ffffff;stroke:#000000;stroke-width:1px;stroke-linecap:butt;stroke-linejoin:miter;stroke-opacity:1" />
        <path
           inkscape:connector-curvature="0"
           d="m 409.75798,484.18684 c 3.17208,-0.55978 93.29645,-1.49274 96.09534,-1.49274 2.79889,0 8.58327,9.70283 14.18106,23.13751 5.59778,13.43469 9.70283,21.45819 8.95646,24.81686 -0.74637,3.35867 -3.54527,5.03801 -4.85142,5.2246 -1.30615,0.18659 -108.22387,0.37318 -110.64958,0.18659 -2.42571,-0.18659 -4.66482,-3.17208 -4.85142,-6.34416 -0.18659,-3.17208 -2.05252,-39.74428 -1.86592,-41.61021 0.18659,-1.86593 0.37318,-3.91845 2.98548,-3.91845 z"
           id="path3125"
           style="fill:#ffffff;stroke:#000000;stroke-width:1px;stroke-linecap:butt;stroke-linejoin:miter;stroke-opacity:1" />
        <path
           inkscape:connector-curvature="0"
           d="m 0.7468248,598.43427 1.01212,-45.82021 c 9.4224672,4.62408 145.9393852,0.93534 281.3307152,-1.17759 135.39133,-2.11293 265.43497,-2.65006 274.57723,-5.97238 6.43275,14.32429 7.88002,36.1726 2.42179,72.00517 -0.25303,3.28939 -1.5833,15.50738 -1.5833,15.50738 2.22388,0.71786 8.31539,1.17651 8.31539,5.13212 -6.13626,0.80025 -5.48281,0.79945 -5.86448,16.49828 0,0 -3.54243,-0.50606 -5.56667,2.27727 -2.02425,2.78334 -3.54243,4.30152 -9.1091,4.55455 -5.56667,0.25303 -46.30458,2.53031 -46.30458,2.53031 -1.51818,-34.41215 -16.95304,-44.28034 -19.23031,-45.79852 -2.27728,-1.51818 -25.55608,-1.26515 -25.55608,-1.26515 0,0 -22.01365,-1.26515 -26.06214,1.01212 -16.19395,11.6394 -20.24244,31.62881 -23.78486,37.95457 -3.54243,6.32576 -6.83182,5.31364 -6.83182,5.31364 l 0,5.8197 -6.5788,0 c -1.65879,0.13009 -1.78188,1.86194 -1.77121,3.52264 -0.0611,1.77016 -201.15922,3.81524 -201.15922,3.81524 0,0 -16.66295,-22.80615 -21.00153,-27.58032 -3.18196,-3.50143 -9.61516,-3.51556 -12.90455,-3.54242 -3.29901,-0.0269 -70.595516,0.75909 -75.656126,0.75909 -5.06061,0 -7.59091,2.5303 -8.85606,5.06061 -1.26515,2.5303 -9.86819,16.44698 -9.61516,21.76062 -5.31364,0.75909 -35.746108,0.95919 -35.746108,0.95919 -0.07447,-10.96102 -1.074349,-12.78901 -3.719953,-14.51134 -3.9104,-2.54573 -18.9259917,-0.32008 -17.2127582,-5.68769 0,-2.02425 -0.50607,-6.8223 -0.50607,-6.8223 l -4.55454,-0.75909 -2.78334,-41.497 z"
           id="path6338"
           style="fill:url(#linearGradient6357-8);fill-opacity:1;fill-rule:nonzero;stroke:none;display:inline" />
      </g>
    </g>
    <path
       style="fill:#000000;fill-opacity:0.85490196;stroke:#000000;stroke-width:1px;stroke-linecap:butt;stroke-linejoin:miter;stroke-opacity:1"
       d="m 490.69208,802.00912 c -20.02825,-16.4518 -119.4542,1.4306 -200.99778,1.4306 -81.54358,0 -197.421301,-1.4306 -225.317791,2.1458 -27.896486,3.5765 -50.070618,10.0142 -50.070618,10.0142 l -11.4447126,-43.63301 185.2612916,3.57651 226.03309,-27.89653 69.38357,6.43766 z"
       id="path4031"
       inkscape:connector-curvature="0" />
  </g>
  <g
     inkscape:groupmode="layer"
     id="layer3"
     inkscape:label="wheel"
     style="display:inline;">
    <path
       sodipodi:type="arc"
       style="fill:#000000;fill-opacity:0.85490196;stroke:#000000;stroke-width:1;stroke-miterlimit:4;stroke-opacity:1;stroke-dasharray:none"
       id="path4033"
       sodipodi:cx="643.49689"
       sodipodi:cy="1006.3151"
       sodipodi:rx="38.894142"
       sodipodi:ry="38.894142"
       d="m 682.39103,1006.3151 a 38.894142,38.894142 0 1 1 -77.78828,0 38.894142,38.894142 0 1 1 77.78828,0 z"
       transform="matrix(1,0,0,0.96214509,0,36.621635)" />
    <g
       transform="matrix(0.91553343,0.00970078,0,0.9379222,-242.6402,1352.6152)"
       id="layer4"
       style="display:inline">
      <g
         transform="translate(519.32015,-1043.9179)"
         id="frontwheel">
        <title
           id="title6336">frontwheel</title>
        <path
           inkscape:connector-curvature="0"
           d="m 491.78987,663.22451 a 40.25583,43.062164 89.944776 1 1 -86.12432,0.0104 40.25583,43.062164 89.944776 0 1 86.12432,-0.0104 z"
           id="path5645-1-0"
           style="opacity:0.71608833;fill:url(#radialGradient6287-6-3);fill-opacity:1;fill-rule:nonzero;stroke:none" />
        <path
           inkscape:connector-curvature="0"
           d="m 475.23625,670.03107 a 27.438305,26.95693 0 1 1 -54.87661,0 27.438305,26.95693 0 1 1 54.87661,0 z"
           transform="translate(1.1955115,-6.085262)"
           id="path5647-3-5"
           style="fill:url(#radialGradient6074-7-5-9-6);fill-opacity:1;stroke:#000000;stroke-opacity:1" />
        <path
           inkscape:connector-curvature="0"
           d="m 468.73771,669.30902 a 20.699075,20.097358 0 1 1 -41.39815,0 20.699075,20.097358 0 1 1 41.39815,0 z"
           transform="matrix(0.96321947,0,0,0.97708832,17.327911,9.4445783)"
           id="path5874-4-9"
           style="opacity:0.71608833;fill:none;stroke:#000000;stroke-width:1.39999998;stroke-linecap:round;stroke-linejoin:round;stroke-miterlimit:4;stroke-opacity:1;stroke-dasharray:1.4, 4.2;stroke-dashoffset:2.23999999;marker-start:none" />
      </g>
    </g>
  </g>
</svg>
